# xmcd CD database file
#
# Track frame offsets:
#	182
#	15667
#	23352
#	38342
#	50517
#	60322
#	72722
#	84442
#	94660
#	123315
#	137867
#	150777
#	169172
#	182295
#	206822
#	222457
#	237165
#	252677
#	270705
#	279232
#	291612
#	307380
#	319757
#	329540
#
# Disc length: 4533 seconds
#
# Revision: 1
# Processed by: cddbd v1.5.2PL0 Copyright (c) Steve Scherf et al.
# Submitted via: CDex 1.51
#
DISCID=5e11b318
DTITLE=Greenhorns - 50x30 let Greenhorns CD2
DYEAR=1995
DGENRE=Country
TTITLE0=El Paso (1972)
TTITLE1=Vlak v 0,5 (1972)
TTITLE2=Divnej smich (1972)
TTITLE3=Hromskej den (1973)
TTITLE4=Honzuv song (1973)
TTITLE5=Michaluv song (1973)
TTITLE6=Rok 1849 (1973)
TTITLE7=Hej, Joe (1973)
TTITLE8=Feleena z El Pasa (1973)
TTITLE9=Jarni zprava (1974)
TTITLE10=Louise (1974)
TTITLE11=Cadillac (1979)
TTITLE12=Pivni dzip (1981)
TTITLE13=Johnsonuv protijed (1981)
TTITLE14=Mimozemstan (1984)
TTITLE15=Zelenac (1985)
TTITLE16=Sedm spanelskych andelu (1987)
TTITLE17=Battledress (1989)
TTITLE18=Nebij zenu v nedeli (1990)
TTITLE19=To tenkrat v ctyricatom patom (1990)
TTITLE20=Tequila Sheila (1992)
TTITLE21=Maslicka cerna jak noc (1992)
TTITLE22=Redback pod prkynkem hajzliku (1994)
TTITLE23=Kdyz u nas Pete Seeger hral (1993)
EXTD=YEAR: 1995
EXTT0=
EXTT1=
EXTT2=
EXTT3=
EXTT4=
EXTT5=
EXTT6=
EXTT7=
EXTT8=
EXTT9=
EXTT10=
EXTT11=
EXTT12=
EXTT13=
EXTT14=
EXTT15=
EXTT16=
EXTT17=
EXTT18=
EXTT19=
EXTT20=
EXTT21=
EXTT22=
EXTT23=
PLAYORDER=
